<?xml version="1.0" encoding="UTF-8"?>
<svg viewBox="0 0 29 36" version="1.1" xmlns="http://www.w3.org/2000/svg" xmlns:xlink="http://www.w3.org/1999/xlink">
    <!-- Generator: Sketch 49 (51002) - http://www.bohemiancoding.com/sketch -->
    <title>icon-密码</title>
    <desc>Created with Sketch.</desc>
    <defs></defs>
    <g id="715" stroke="none" stroke-width="1" fill="none" fill-rule="evenodd">
        <g id="Group" fill="#DDDDDD">
            <path d="M24.538658,13.5006964 L23.4230846,13.5006964 L23.4230846,9.20614408 C23.4230846,4.04318988 19.7199279,0 14.4587937,0 C9.17653071,0 5.57686531,4.12934856 5.57686531,9.20614408 L5.57686531,13.5006964 L4.46129197,13.5006964 C2.00108251,13.5006964 0,15.5187595 0,18.0008954 L0,31.499801 C0,33.981937 2.00108251,36 4.46129197,36 L24.538658,36 C26.9988674,36 29,33.981937 29,31.499801 L29,18.0008954 C29,15.5187595 26.9988674,13.5006964 24.538658,13.5006964 L24.538658,13.5006964 Z M7.80711074,9.20614408 C7.80711074,5.37213274 10.4062099,2.25017411 14.4587937,2.25017411 C18.4689697,2.25017411 21.191938,5.30537469 21.191938,9.20614408 L21.191938,13.5006964 L7.80711074,13.5006964 L7.80711074,9.20614408 L7.80711074,9.20614408 Z M26.7688533,31.499801 C26.7688533,32.7408441 25.768287,33.7499254 24.538658,33.7499254 L4.46129197,33.7499254 C3.23161282,33.7499254 2.23019537,32.7408441 2.23019537,31.499801 L2.23019537,18.0008954 C2.23019537,16.7598026 3.23161282,15.7507711 4.46129197,15.7507711 L24.538658,15.7507711 C25.768287,15.7507711 26.7688533,16.7598523 26.7688533,18.0008954 L26.7688533,31.499801 L26.7688533,31.499801 Z" id="iconfont-mima-(4)"></path>
            <rect id="Rectangle-5" x="12.4285714" y="20.7692308" width="4.14285714" height="8.30769231" rx="2.07142857"></rect>
        </g>
    </g>
</svg>