<?xml version="1.0" encoding="UTF-8"?>
<svg viewBox="0 0 33 36" version="1.1" xmlns="http://www.w3.org/2000/svg" xmlns:xlink="http://www.w3.org/1999/xlink">
    <!-- Generator: Sketch 49 (51002) - http://www.bohemiancoding.com/sketch -->
    <title>icon-账户</title>
    <desc>Created with Sketch.</desc>
    <defs></defs>
    <g id="715" stroke="none" stroke-width="1" fill="none" fill-rule="evenodd">
        <g id="iconfont-zhanghao" fill="#DDDDDD">
            <path d="M16.1379459,21.6698049 C9.9715296,21.6698049 4.95531482,16.8177073 4.95531482,10.8520683 C4.95531482,4.88642927 9.9715296,0.0351219512 16.1379459,0.0351219512 C22.3035454,0.0351219512 27.3198056,4.88721951 27.3198056,10.8528585 C27.3198056,16.8185415 22.3035454,21.6698049 16.1379459,21.6698049 L16.1379459,21.6698049 Z M16.1379459,2.56126829 C11.4124355,2.56126829 7.56815925,6.28116585 7.56815925,10.8520683 C7.56815925,15.4229268 11.4132523,19.1428683 16.1379459,19.1428683 C20.862685,19.1428683 24.7069612,15.4229268 24.7069612,10.8520683 C24.7069612,6.28116585 20.8635018,2.56126829 16.1379459,2.56126829 L16.1379459,2.56126829 Z" id="Fill-1"></path>
            <path d="M30.9504327,36 C30.229163,36 29.6444416,35.4351073 29.6444416,34.7365317 C29.6444416,27.5317024 23.5852582,21.6698049 16.1379459,21.6698049 C8.68981679,21.6698049 2.63149562,27.5317024 2.63149562,34.7365317 C2.63149562,35.4343171 2.04591206,36 1.32464229,36 C0.603372521,36 0.0186511813,35.4351073 0.0186511813,34.7365317 C0.0186511813,26.1385902 7.24981853,19.1436585 16.1379459,19.1436585 C25.0253019,19.1436585 32.255607,26.1385902 32.255607,34.7365317 C32.255607,35.4351073 31.6717025,36 30.9504327,36" id="Fill-2"></path>
        </g>
    </g>
</svg>